PathFileType	4	(X/Y/Z)	C:\Users\WrightLab\Desktop\Jo\P5V19.trc
DataRate	CameraRate	NumFrames	NumMarkers	Units	OrigDataRate	OrigDataStartFrame	OrigNumFrames
100.00	100.00	       18	19	mm	100.00	177	       705
Frame#	Time	Headset_Front			Headset_Back			Headset_Left			Headset_Right			Left_Shoulder			Right_Shoulder			Sternum			C7			Left Elbow			Right Elbow			Left Wrist			Right Wrist			Left ASIS			Right ASIS			S2			Left Knee			Right Knee			Left Ankle			Right Ankle			
		X1	Y1	Z1	X2	Y2	Z2	X3	Y3	Z3	X4	Y4	Z4	X5	Y5	Z5	X6	Y6	Z6	X7	Y7	Z7	X8	Y8	Z8	X9	Y9	Z9	X10	Y10	Z10	X11	Y11	Z11	X12	Y12	Z12	X13	Y13	Z13	X14	Y14	Z14	X15	Y15	Z15	X16	Y16	Z16	X17	Y17	Z17	X18	Y18	Z18	X19	Y19	Z19	

177	1.760	275.65884	1752.11389	-636.63129	185.23141	1507.45959	-740.32605							426.24271	1484.62537	-789.20374	113.62324	1432.56250	-524.47766	329.11188	1308.41553	-587.66455	401.99588	1647.51672	-565.93481	490.76730	1218.55408	-880.51666	-28.34063	1176.23499	-564.95636	587.07599	1068.81934	-726.43744	72.57587	978.91913	-452.80710	431.26169	918.25360	-705.48267	226.65730	928.88605	-518.06372	160.91393	971.03314	-834.12250	367.94305	476.53036	-823.63129	326.52747	516.07050	-486.85938	153.49855	89.68448	-941.81335	389.34958	94.25273	-498.10312	
178	1.770	279.00616	1750.99829	-629.31134	190.16069	1505.86523	-733.62372							430.99661	1484.52661	-781.97827	116.27377	1431.10291	-518.89996	334.91980	1308.44702	-581.14685	405.16196	1646.90344	-557.92426	496.60461	1218.01831	-872.31573	-23.47235	1175.26868	-560.59564	592.59857	1069.23511	-718.01874	74.60748	977.64850	-448.30386	437.85825	917.61847	-698.04791	231.38727	927.91473	-510.13852	167.23801	970.07666	-828.17285	370.16754	475.49655	-817.56128	330.50580	514.18719	-482.55151	154.18407	90.28739	-941.17706	391.46841	91.99162	-498.92593	
179	1.780	281.93738	1750.23145	-623.16339	194.51222	1504.91455	-727.91907							436.03482	1484.16223	-774.06018	120.83189	1429.98376	-512.32770	338.39151	1306.68506	-572.55505	407.83026	1646.37622	-551.06958	502.20651	1217.90320	-864.54089	-20.02273	1173.75562	-555.98462	597.61194	1069.77942	-710.36853	77.54719	976.16052	-442.56644	443.97855	917.59131	-689.86664	235.61093	926.93842	-503.29541	174.06982	969.19458	-821.20154	372.57910	474.88351	-810.12939	334.56540	512.34766	-477.67078	155.75578	91.75943	-940.26605	394.18533	91.43444	-499.34839	
180	1.790	284.93079	1749.50549	-616.26605	199.01990	1503.20276	-721.24982							440.80884	1484.11768	-766.33771	123.30592	1428.66687	-507.37769	342.09903	1306.74585	-565.45068	410.91302	1646.04456	-541.92896	507.69870	1218.04199	-857.53247	-16.81610	1172.70398	-551.98126	602.99164	1070.19531	-701.48920	79.88252	975.18677	-437.42261	449.82474	917.03741	-681.06000	241.08211	926.37390	-494.48538	180.73474	968.09229	-814.67834	374.13931	473.72791	-802.11749	339.67184	510.95413	-472.49399	156.48798	94.59245	-939.85864	398.22290	90.71298	-496.96481	
181	1.800	287.94821	1748.96936	-608.78821	203.58690	1502.22705	-714.89063							445.70288	1483.86963	-758.28467	127.00745	1427.78162	-500.00275	347.26056	1306.50146	-557.47699	413.43396	1646.17847	-534.80817	513.87891	1217.45471	-848.21484	-12.31863	1170.70105	-547.16705	608.30084	1070.65540	-693.36719	83.04422	973.78815	-432.12213	457.51999	917.59235	-673.36481	245.83920	926.15381	-486.45834	187.41342	966.50562	-808.03503	376.71304	473.16705	-794.01740	345.13821	509.39255	-468.42502	158.84581	96.60721	-939.49719	401.19833	90.98106	-494.59357	
182	1.810	290.75934	1749.04236	-601.95215	208.00130	1501.61316	-708.64240							450.44363	1483.98889	-750.52618	129.50438	1426.54065	-495.12042	351.59445	1306.26294	-549.78833	416.26694	1646.24878	-526.78247	519.26288	1217.56348	-839.90796	-11.41065	1170.68579	-543.42078	613.92175	1070.99304	-684.09662	85.42545	972.58038	-427.27777	463.98077	917.84113	-664.84113	250.75133	925.37067	-478.52823	193.93294	965.25739	-801.93823	380.04654	471.56256	-785.14026	351.90771	508.07516	-462.83386	160.77748	99.25040	-938.06543	403.75333	91.14402	-492.86603	
183	1.820	293.80362	1748.60303	-594.05652	212.31799	1501.28040	-701.91895							455.19354	1484.25781	-742.69403	132.96739	1425.73193	-489.39139	355.12924	1306.70117	-542.83264	418.88150	1646.91956	-518.46735	525.58685	1217.99231	-832.45227	-6.57046	1169.64600	-538.94653	619.69641	1071.64160	-675.51898	89.18903	971.54352	-421.83658	469.82492	918.60150	-656.11987	255.27583	925.29279	-470.67786	200.98209	964.90826	-794.79059	383.67691	470.51279	-775.66718	359.49005	507.77005	-458.05817	163.17113	103.20170	-937.15509	404.69449	91.00219	-492.69299	
184	1.830	296.44656	1749.39465	-586.98590	217.05307	1501.45300	-695.64185							460.07773	1484.73108	-734.78790	136.12013	1425.73950	-483.71750	359.57840	1307.73315	-534.66608	421.39301	1647.79956	-510.00424	531.50031	1218.98486	-824.10681	-2.06306	1168.45203	-534.54907	624.83899	1072.54651	-666.71161	91.57240	970.50549	-417.14828	477.35818	918.39709	-646.61163	260.05811	925.94617	-462.81787	207.48016	964.56201	-789.13409	387.65659	469.87442	-765.15802	366.13687	508.29413	-452.85892	166.01675	105.90865	-935.88800	405.31598	91.27477	-492.95920	
185	1.840	299.42130	1749.61243	-579.09814	221.13762	1501.53577	-689.33771							465.15067	1485.34204	-726.29614	138.57033	1425.24231	-478.65125	362.36929	1308.24133	-527.55560	423.93347	1648.49487	-501.96713	537.09943	1219.52917	-815.57867	1.47904	1168.30212	-530.36414	629.81927	1073.54492	-657.89703	93.84181	969.90521	-411.90613	483.58176	919.86450	-636.91833	265.15930	926.60052	-454.73181	214.37604	964.36548	-782.13928	391.65851	468.96964	-754.36401	373.92249	511.04025	-446.61575	170.30356	111.39824	-933.75574	405.74341	92.13520	-492.09506	
186	1.850	241.50235	1571.68335	-286.30923	226.09343	1501.91199	-683.03589							469.94104	1486.47498	-718.12500	141.62946	1425.98706	-472.80466	367.51154	1309.59216	-520.26898	426.23044	1649.76892	-493.81073	542.54327	1220.67944	-806.74066	7.59368	1167.64368	-525.80310	634.60681	1074.94189	-649.13068	96.19263	969.17499	-406.99643	490.55084	921.63336	-627.07019	269.59006	927.40460	-447.58444	221.12874	964.51294	-775.62549	396.11252	469.55722	-743.48334	381.07117	513.45056	-440.08652	174.23775	116.07542	-931.37408	406.06232	92.54169	-491.50830	
187	1.860	243.41112	1571.95837	-279.82019	230.35959	1502.36841	-676.89014							474.97543	1487.42017	-709.12311	145.54494	1426.60229	-465.73605	370.15005	1310.03784	-512.80762	428.92090	1650.27759	-485.31363	548.31580	1222.29260	-798.47327	10.94780	1168.42224	-520.86072	639.50708	1075.85571	-639.50024	98.83083	969.23785	-401.85095	496.46823	923.02368	-617.33447	273.67419	928.51782	-440.11499	228.19601	965.09467	-767.96051	402.20734	469.71851	-731.30542	387.01169	516.48682	-433.48666	178.42795	121.81966	-928.64453	406.84912	92.29710	-491.21576	
188	1.870	245.39740	1572.38562	-273.33664	234.34729	1503.44409	-670.44385							479.63229	1488.72583	-701.08148	147.36816	1427.48389	-461.67502	373.87943	1311.10632	-504.64804	431.27908	1651.48328	-477.54166	554.01050	1223.98584	-789.94574	15.98204	1167.89502	-517.02637	644.52850	1077.24121	-630.73602	101.92046	968.78625	-396.80569	501.89767	924.24127	-606.58160	277.80670	929.54669	-432.46878	234.50795	966.31512	-762.88599	408.69690	470.08389	-719.21832	393.56107	519.34760	-425.87363	184.24680	128.00958	-925.36438	407.32169	92.80688	-490.45166	
189	1.880	247.18916	1573.08630	-267.06879	238.91299	1504.35437	-664.57501							484.02454	1490.61023	-693.44104	150.05598	1428.50647	-455.91647	376.38644	1312.34094	-496.79361	433.32202	1652.88000	-470.68750	560.02600	1225.47424	-780.95819	19.55017	1169.17004	-512.99927	649.68951	1078.82861	-621.94153	103.68732	969.00348	-391.88757	507.42859	925.67316	-596.63074	281.27377	931.06213	-424.96100	241.28625	966.97626	-755.82971	420.77081	474.67422	-710.09637	398.82758	520.99976	-419.63028	192.57495	135.70197	-921.31201	408.23117	92.41135	-489.25754	
190	1.890	248.95505	1573.92761	-261.23358	243.39095	1504.98840	-658.35663							488.47549	1492.01135	-685.15747	153.84738	1430.18921	-449.25974	380.80185	1314.39502	-489.88690	435.33133	1654.40356	-463.72720	565.33746	1227.60046	-772.39325	23.63915	1169.72681	-508.93164	652.21460	1080.03052	-612.43793	106.52758	968.90558	-387.37424	513.14343	927.90100	-586.30768	285.61026	932.70459	-417.78278	246.55145	968.35138	-751.40295	435.32535	477.44507	-700.59436	404.23999	522.55450	-412.08533	198.64938	143.11026	-916.74866	409.81479	91.42305	-489.24557	
191	1.900	250.76262	1574.75488	-255.32486	247.23090	1505.85840	-652.56866							492.94244	1493.21765	-676.97333	155.22029	1430.97876	-443.85980	382.34036	1315.01648	-481.08444	437.35092	1655.93652	-456.59714	570.62372	1229.11462	-764.68500	27.18205	1170.51917	-504.55429	657.16583	1081.26672	-603.46033	108.95768	969.60760	-382.63797	518.75433	929.98944	-576.70782	289.43039	934.42291	-409.93182	253.17802	968.60663	-743.73535	451.60757	476.59912	-690.91516	407.42859	523.58661	-405.27423	209.15622	150.23206	-911.22559	407.07333	92.29586	-488.36575	
192	1.910	252.40144	1575.61401	-249.35207	251.16766	1506.63000	-646.50836							496.86237	1494.98669	-669.62512	158.04324	1431.98853	-439.14871	386.66766	1317.44983	-473.59238	439.62335	1657.01184	-448.85321	576.70825	1230.82141	-755.21313	31.19675	1171.16235	-500.59821	661.96008	1083.65405	-594.55054	111.32796	970.14777	-378.18967	524.18317	932.42676	-566.73822	293.20093	936.34601	-403.17123	259.08041	969.66534	-737.16595	467.25992	474.95953	-680.29791	409.85965	523.87457	-399.11072	220.68779	157.41589	-905.24817	407.22989	92.25210	-488.30356	
193	1.920	253.98094	1576.48474	-243.93192	254.67641	1507.01917	-641.04987							501.04968	1496.07666	-661.30920	160.68539	1433.20764	-433.29428	389.03424	1318.57214	-466.42487	441.48285	1658.79285	-441.99036	582.26550	1232.68884	-747.04974	34.22057	1171.33191	-496.32019	665.86603	1084.51074	-584.90973	113.58062	970.55634	-373.24295	528.82251	934.23883	-557.62311	296.16061	937.84741	-396.74017	264.68057	969.98560	-729.98511	482.88455	473.48245	-669.09210	410.31674	524.07294	-393.33008	233.93785	163.88847	-898.73724	407.84488	92.00757	-488.23709	
194	1.930	255.52945	1577.53198	-238.35323	258.61465	1507.17480	-635.11609										162.82594	1433.69617	-428.47949	392.45419	1320.42883	-458.89975	443.22565	1660.24048	-435.82437	587.76575	1233.77087	-738.48315	37.87568	1171.79199	-492.30423	669.62939	1086.31860	-575.62976	115.83236	970.78003	-368.11996	533.74280	936.10028	-548.72589	299.61435	938.83276	-390.21933	269.90567	970.73230	-722.65570	499.66650	474.02484	-658.41028	409.94733	523.44873	-387.42694	247.29283	172.15150	-891.77228	408.23584	92.14767	-488.64404	
